# xmcd
#
# Track frame offsets:
#	150
#	16721
#	35061
#	47543
#	61214
#	76656
#	91491
#	100114
#	111576
#	124887
#	136872
#	158745
#	173826
#	191849
#
# Disc length: 2796 seconds
#
# Revision: 1
# Processed by: cddbd v1.5.2PL0 Copyright (c) Steve Scherf et al.
# Submitted via: audiograbber 1.83.01
#
DISCID=b00aea0e
DTITLE=RENATO TEIXEIRA E SÉRGIO REIS - AMIZADE SINCERA II
DYEAR=1900
DGENRE=SERTANEJO
TTITLE0=DEUS E EU NO SERTÃO
TTITLE1=FOLIA DE REI
TTITLE2=VOCÊ VAI GOSTAR
TTITLE3=SAUDADE DANADA (CHICO TEIXEIRA)
TTITLE4=CUITELINHO(TOQUINHO E CHICO TEIXEIRA)
TTITLE5=NA BOCA DA NOITE (TOQUINHO)
TTITLE6=DE PABO PRO AR
TTITLE7=IMENSO JARDIM
TTITLE8=EU E MEU IRMÃO
TTITLE9=PINGO D`ÁGUA
TTITLE10=CABECINHA NO OMBRO
TTITLE11=CHUÁ, CHUÁ(CANÇÃO)
TTITLE12=A VISITA DA CANÇÃO
TTITLE13=CANÇÃO DA AMÉRICA
EXTD=
EXTT0=
EXTT1=
EXTT2=
EXTT3=
EXTT4=
EXTT5=
EXTT6=
EXTT7=
EXTT8=
EXTT9=
EXTT10=
EXTT11=
EXTT12=
EXTT13=
PLAYORDER=
